<?xml version="1.0" encoding="UTF-8" standalone="no"?>
<!-- Created with Inkscape (http://www.inkscape.org/) -->

<svg
   xmlns:dc="http://purl.org/dc/elements/1.1/"
   xmlns:cc="http://creativecommons.org/ns#"
   xmlns:rdf="http://www.w3.org/1999/02/22-rdf-syntax-ns#"
   xmlns:svg="http://www.w3.org/2000/svg"
   xmlns="http://www.w3.org/2000/svg"
   xmlns:sodipodi="http://sodipodi.sourceforge.net/DTD/sodipodi-0.dtd"
   xmlns:inkscape="http://www.inkscape.org/namespaces/inkscape"
   width="690.84283"
   height="597.90881"
   id="svg2"
   version="1.1"
   inkscape:version="0.47 r22583"
   sodipodi:docname="New document 1">
  <defs
     id="defs4">
    <inkscape:perspective
       sodipodi:type="inkscape:persp3d"
       inkscape:vp_x="0 : 526.18109 : 1"
       inkscape:vp_y="0 : 1000 : 0"
       inkscape:vp_z="744.09448 : 526.18109 : 1"
       inkscape:persp3d-origin="372.04724 : 350.78739 : 1"
       id="perspective10" />
    <inkscape:perspective
       id="perspective3604"
       inkscape:persp3d-origin="0.5 : 0.33333333 : 1"
       inkscape:vp_z="1 : 0.5 : 1"
       inkscape:vp_y="0 : 1000 : 0"
       inkscape:vp_x="0 : 0.5 : 1"
       sodipodi:type="inkscape:persp3d" />
  </defs>
  <sodipodi:namedview
     id="base"
     pagecolor="#ffffff"
     bordercolor="#666666"
     borderopacity="1.0"
     inkscape:pageopacity="0.0"
     inkscape:pageshadow="2"
     inkscape:zoom="0.49497475"
     inkscape:cx="586.90391"
     inkscape:cy="224.44944"
     inkscape:document-units="px"
     inkscape:current-layer="layer1"
     showgrid="false"
     inkscape:window-width="1280"
     inkscape:window-height="888"
     inkscape:window-x="-4"
     inkscape:window-y="-4"
     inkscape:window-maximized="1" />
  <metadata
     id="metadata7">
    <rdf:RDF>
      <cc:Work
         rdf:about="">
        <dc:format>image/svg+xml</dc:format>
        <dc:type
           rdf:resource="http://purl.org/dc/dcmitype/StillImage" />
        <dc:title></dc:title>
      </cc:Work>
    </rdf:RDF>
  </metadata>
  <g
     inkscape:label="Layer 1"
     inkscape:groupmode="layer"
     id="layer1"
     transform="translate(-9.1421334,-233.17919)">
    <path
       sodipodi:type="arc"
       style="fill:#ffffff;fill-opacity:1;fill-rule:nonzero;stroke:#000000;stroke-width:10;stroke-linecap:round;stroke-linejoin:miter;stroke-miterlimit:4;stroke-opacity:1;stroke-dasharray:none;stroke-dashoffset:0"
       id="path3620"
       sodipodi:cx="64.649765"
       sodipodi:cy="472.53461"
       sodipodi:rx="117.1777"
       sodipodi:ry="268.70059"
       d="m 181.82746,472.53461 c 0,148.39924 -52.46224,268.70059 -117.177695,268.70059 -64.71545463,0 -117.177696,-120.30135 -117.177696,-268.70059 0,-148.39924 52.46224137,-268.7006 117.177696,-268.7006 64.715455,0 117.177695,120.30136 117.177695,268.7006 z"
       transform="matrix(2.8726899,0,0,1.0798196,168.84482,21.881457)" />
    <path
       style="fill:none;stroke:#000000;stroke-width:10;stroke-linecap:round;stroke-linejoin:miter;stroke-miterlimit:4;stroke-opacity:1;stroke-dasharray:none"
       d="m 355.87166,686.47203 0,-381.77521"
       id="path2816"
       sodipodi:nodetypes="cc" />
    <path
       sodipodi:type="arc"
       style="fill:#000000;fill-opacity:1;stroke:#000000;stroke-width:5;stroke-linejoin:miter;stroke-miterlimit:4;stroke-opacity:1;stroke-dasharray:none;stroke-dashoffset:0"
       id="path2818"
       sodipodi:cx="284.86301"
       sodipodi:cy="703.85956"
       sodipodi:rx="80.812202"
       sodipodi:ry="83.842659"
       d="m 365.67521,703.85956 c 0,46.30502 -36.18086,83.84266 -80.8122,83.84266 -44.63135,0 -80.81221,-37.53764 -80.81221,-83.84266 0,-46.30502 36.18086,-83.84266 80.81221,-83.84266 44.63134,0 80.8122,37.53764 80.8122,83.84266 z"
       transform="matrix(0.86662604,0,0,0.86662604,41.962127,84.107402)" />
    <path
       style="fill:#000000;fill-opacity:1;fill-rule:nonzero;stroke:#000000;stroke-width:3.49788642;stroke-linejoin:miter;stroke-miterlimit:4;stroke-opacity:1;stroke-dasharray:none;stroke-dashoffset:0"
       d="M 498.23775,478.96203 C 487.43102,436.20815 446.22124,431.4938 416.5823,423.48582 381.21648,411.5191 365.03425,382.76349 358.75673,339.52089 l -2.02761,-36.99987 c 12.76379,33.73415 40.64336,44.6109 67.22015,53.67478 46.38196,11.01541 67.31525,50.25786 74.72373,107.8334 0.48397,6.08567 0.99901,19.27869 0.75259,19.27869 -0.0715,0 -0.60616,-1.95564 -1.1881,-4.34586 l 0,0 2.6e-4,0 z"
       id="path3618"
       sodipodi:nodetypes="ccccccsccc" />
  </g>
</svg>
